<?xml version="1.0" encoding="UTF-8"?>
<svg xmlns="http://www.w3.org/2000/svg" xmlns:xlink="http://www.w3.org/1999/xlink"
  viewBox="0 0 138.19 33.51">
  <defs>
    <style>.f{fill:none;}.f,.g{stroke-width:0px;}.h{clip-path:url(#d);}</style>
    <clipPath id="d">
      <rect class="f" x="3.8" y="6.28" width="19.47" height="18.25"
        transform="translate(27.06 30.82) rotate(180)" />
    </clipPath>
  </defs>
  <g id="a">
    <path class="g"
      d="M24.64,24.52c-.06,0-.08-.04-.08-.11l.02-14.87c0-.06.03-.09.08-.09h6.67c.06,0,.08.04.08.11v2.42c0,.06-.03.09-.08.09h-4.26v3.38h4.26c.06,0,.08.03.08.09l.02,2.45c0,.06-.03.09-.08.09h-4.28v3.79h4.28c.06,0,.08.04.08.11v2.47c0,.06-.03.09-.08.09h-6.71ZM33.38,24.52c-.07,0-.1-.04-.1-.11l.04-14.87c0-.06.03-.09.08-.09h6.65c.07,0,.1.03.1.09v2.45c0,.06-.03.09-.08.09h-4.26v3.35h4.26c.06,0,.08.04.08.11l.02,2.45c0,.06-.03.09-.1.09h-4.26v6.34c0,.07-.03.11-.1.11,0,0-2.33,0-2.33,0ZM42.32,24.52c-.07,0-.1-.04-.1-.11l.04-14.87c0-.06.03-.09.08-.09h6.65c.07,0,.1.03.1.09v2.45c0,.06-.03.09-.08.09h-4.26v3.35h4.26c.06,0,.08.04.08.11l.02,2.45c0,.06-.04.09-.1.09h-4.26v6.34c0,.07-.04.11-.1.11,0,0-2.33,0-2.33,0ZM51.27,24.52c-.07,0-.1-.04-.1-.11l.02-14.87c0-.06.03-.09.08-.09h2.33c.06,0,.08.03.08.09l.02,14.87c0,.07-.03.11-.08.11h-2.35Z" />
    <path class="g"
      d="M60.01,24.75c-.76,0-1.45-.19-2.08-.58-.6-.4-1.1-.95-1.45-1.6-.36-.68-.55-1.45-.54-2.23l.02-6.75c0-.79.17-1.51.52-2.16.35-.65.85-1.19,1.45-1.58.62-.4,1.34-.61,2.08-.61.76,0,1.45.19,2.06.58.61.39,1.09.92,1.45,1.58.36.65.54,1.38.54,2.19v1c0,.06-.03.09-.08.09h-2.33c-.06,0-.08-.03-.08-.09v-1c0-.48-.15-.89-.46-1.23-.29-.35-.66-.52-1.1-.52-.5,0-.88.18-1.14.54-.26.35-.39.75-.39,1.21v6.75c0,.53.15.97.44,1.3.31.33.67.5,1.1.5s.81-.18,1.1-.54c.31-.38.46-.79.46-1.26v-1c0-.06.03-.09.08-.09h2.35c.06,0,.08.03.08.09v1c0,.82-.19,1.57-.56,2.23-.35.65-.85,1.2-1.45,1.6-.62.39-1.33.59-2.06.58Z" />
    <path class="g"
      d="M65.7,24.53c-.07,0-.1-.04-.1-.11l.02-14.87c0-.06.03-.09.08-.09h2.33c.06,0,.08.03.08.09l.02,14.87c0,.07-.03.11-.08.11,0,0-2.35,0-2.35,0ZM70.04,24.53c-.06,0-.08-.04-.08-.11l.02-14.87c0-.06.03-.09.08-.09h6.67c.06,0,.08.04.08.11v2.42c0,.06-.03.09-.08.09h-4.26v3.38h4.26c.06,0,.08.03.08.09l.02,2.45c0,.06-.03.09-.08.09h-4.28v3.79h4.28c.06,0,.08.04.08.11v2.47c0,.06-.03.09-.08.09,0,0-6.71,0-6.71,0ZM78.86,24.53c-.11,0-.17-.05-.17-.15l-.02-14.74c0-.12.06-.17.17-.17h1.87l3.51,8.53-.1-8.35c0-.12.06-.17.19-.17h2.06c.08,0,.12.06.12.17l.02,14.76c0,.09-.03.13-.1.13h-1.83l-3.59-7.96.15,7.79c0,.12-.06.17-.19.17h-2.08ZM92.13,24.75c-.76,0-1.45-.19-2.08-.58-.6-.4-1.1-.95-1.45-1.6-.36-.66-.54-1.41-.54-2.23l.02-6.75c0-.79.17-1.51.52-2.16.35-.65.85-1.19,1.45-1.58.62-.4,1.34-.61,2.08-.61.76,0,1.45.19,2.06.58.61.39,1.09.92,1.45,1.58.36.65.54,1.38.54,2.19v1c0,.06-.03.09-.08.09h-2.33c-.06,0-.08-.03-.08-.09v-1c0-.48-.15-.89-.46-1.23-.27-.34-.68-.53-1.1-.52-.5,0-.88.18-1.14.54-.26.35-.39.75-.39,1.21v6.75c0,.53.15.97.44,1.3.3.33.67.5,1.1.5s.81-.18,1.1-.54c.3-.38.46-.79.46-1.26v-1c0-.06.03-.09.08-.09h2.35c.06,0,.08.03.08.09v1c0,.82-.19,1.57-.56,2.23-.35.65-.85,1.2-1.45,1.6-.62.39-1.33.59-2.06.58ZM99.32,24.53s-.06-.03-.06-.09l.02-6.15-2.78-8.74c-.01-.06,0-.09.06-.09h2.31c.07,0,.11.03.12.09l1.54,5.82,1.56-5.82c.01-.06.05-.09.1-.09h2.33c.06,0,.08.03.06.09l-2.8,8.66.02,6.23c0,.06-.03.09-.08.09,0,0-2.39,0-2.39,0ZM111.98,24.53c-.06,0-.08-.04-.08-.11l.02-14.87c0-.06.03-.09.08-.09h6.67c.06,0,.08.04.08.11v2.42c0,.06-.03.09-.08.09h-4.26v3.38h4.26c.06,0,.08.03.08.09l.02,2.45c0,.06-.03.09-.08.09h-4.28v3.79h4.28c.06,0,.08.04.08.11v2.47c0,.06-.03.09-.08.09,0,0-6.71,0-6.71,0ZM120.69,24.53c-.06,0-.08-.04-.08-.11l.04-14.87c0-.06.03-.09.08-.09h4.19c.75,0,1.43.19,2.06.58.64.38,1.14.89,1.52,1.54.37.64.56,1.36.56,2.16,0,.53-.08,1.02-.23,1.45-.15.42-.33.78-.54,1.08-.21.29-.39.51-.56.65.75.87,1.12,1.88,1.12,3.05l.02,4.44c0,.07-.03.11-.1.11h-2.35c-.06,0-.08-.02-.08-.06v-4.48c0-.52-.18-.97-.54-1.34-.33-.38-.8-.59-1.29-.58h-1.37l-.02,6.36c0,.07-.03.11-.08.11,0,0-2.35,0-2.35,0ZM123.15,15.47h1.79c.43,0,.81-.17,1.14-.5s.5-.74.5-1.21-.17-.86-.5-1.19c-.3-.32-.71-.5-1.14-.5h-1.79v3.4ZM129.92,24.43l2.57-14.87c.01-.06.05-.09.1-.09h3.01c.06,0,.09.03.1.09l2.47,14.87c.01.07-.01.11-.08.11h-2.31c-.06,0-.09-.04-.1-.11l-.23-1.58h-2.82l-.23,1.58c-.01.07-.05.11-.1.11h-2.31c-.06,0-.08-.04-.08-.11h0ZM133.06,20.53h1.99l-.85-6.08-.12-.8-.08.8-.93,6.08Z" />
  </g>
  <g id="c">
    <g class="h">
      <path class="g"
        d="M28.12,19.01c-.12-.88-.35-1.75-.7-2.57l2.4-1.37-1.41-2.34-2.33,1.38c-.57-.74-1.24-1.4-1.98-1.97l1.44-2.48-2.37-1.29-1.42,2.42c-.56-.23-1.15-.4-1.74-.53-.32-.07-.64-.15-.96-.19v-2.81h-2.75v2.82c-.24.03-.48.09-.72.14-.07.02-.14.03-.22.04-.28.06-.55.14-.82.22,0,0-.01,0-.02,0h0c-.28.09-.57.17-.85.29l-1.38-2.4-2.36,1.41,1.39,2.33c-.75.57-1.41,1.24-1.98,1.98l-2.49-1.44-1.3,2.37.04.02s-.03.06-.03.06l2.43,1.37c-.09.21-.15.43-.22.64-.24.66-.43,1.34-.52,2.03h-2.81v2.74h2.83c.08.58.23,1.15.41,1.71,0,.02.01.05.02.07h0c.08.25.16.51.26.75l-2.4,1.35,1.41,2.32,2.33-1.36c.57.73,1.24,1.39,1.98,1.95l-1.44,2.45,2.37,1.28,1.42-2.39c.68.28,1.4.46,2.12.6.19.04.38.09.58.12v2.78h2.75v-2.79c.17-.02.34-.07.51-.1.16-.03.32-.06.47-.09.24-.06.48-.12.72-.2.02,0,.05-.01.07-.02h0c.28-.09.57-.18.85-.29l1.38,2.37,2.36-1.4-1.39-2.31c.75-.56,1.41-1.22,1.98-1.96l2.49,1.42.95-1.71h.03l.33-.59h-.02s.02-.05.02-.05l-2.42-1.39c.36-.85.61-1.74.73-2.65h2.81v-2.76h-2.82ZM19.1,17.37c.78.34,1.4.95,1.75,1.72h0c.2.43.31.91.31,1.41-.01.44-.11.89-.3,1.31-.79,1.74-2.85,2.51-4.6,1.73-.44-.19-.82-.47-1.12-.8,0,0,0,0,0,0-.14-.15-.26-.31-.37-.48-.04-.06-.08-.13-.11-.2-.28-.51-.44-1.07-.44-1.66.01-.45.11-.9.3-1.34.07-.16.17-.31.26-.45.92-1.38,2.75-1.95,4.33-1.25Z" />
    </g>
  </g>
  <g id="e">
    <path class="g"
      d="M12.94,8.28l.21-2.76-2.63-.2c-.12-.5-.34-.97-.63-1.39l1.44-2.13-2.27-1.54-1.43,2.11c-.5-.13-1.03-.17-1.55-.1l-1.09-2.28-2.48,1.22,1.12,2.34c-.33.36-.59.78-.76,1.24l-2.66-.18-.21,2.76,2.81.18c.13.39.32.75.57,1.09l-1.63,2.4,2.27,1.54,1.64-2.42c.4.1.81.13,1.2.11l1.29,2.63,2.43-1.34-1.16-2.42c.31-.3.57-.64.77-1.04l2.76.18ZM6.75,8.51c-1.23.1-2.3-.82-2.4-2.05-.1-1.23.82-2.3,2.05-2.4.03,0,.05,0,.08,0,1.23-.05,2.27.9,2.33,2.13.05,1.2-.86,2.23-2.05,2.32Z" />
  </g>
</svg> 